# xmcd
#
# Track frame offsets:
# 150
# 14935
# 27734
# 46615
# 61063
# 76205
# 91193
# 109421
# 135768
# 153933
# 214404
# 241461
# 283608
# 309395
#
# Disc length: 4292 seconds
#
#
# Revision: 0
# Processed by: cddbd v1.5.2PL0 Copyright (c) Steve Scherf et al.
# Submitted via: FreeRIP 2.951 
#
DISCID=b810c20e
DTITLE=Miles Davis - Miles Davis - Miles Ultimate CD4
DYEAR=2016
DGENRE=Blues
TTITLE0=Now's the Time
TTITLE1=Blue Room
TTITLE2=Dear Old Stockholm
TTITLE3=Venus De Milo
TTITLE4=Tasty Pudding
TTITLE5=Moon Dreams
TTITLE6=It Never Entered My Mind
TTITLE7=Green Haze
TTITLE8=Four
TTITLE9=Walkin'
TTITLE10=My Funny Valentine
TTITLE11=Bags Groove
TTITLE12=In Your Own Sweet Way
TTITLE13=Generique
EXTD=Audio CD (23. September 2016) \nErscheinungsdatum: 23. September 2016 \nAnzahl Disks/Tonträger: 5 \nFormat: Import, Box-Set \nLabel: Sony Music Entertainment \nASIN: B01K0ZT29E
EXTT0=
EXTT1=
EXTT2=
EXTT3=
EXTT4=
EXTT5=
EXTT6=
EXTT7=
EXTT8=
EXTT9=
EXTT10=
EXTT11=
EXTT12=
EXTT13=
PLAYORDER=
